<svg xmlns="http://www.w3.org/2000/svg" xmlns:xlink="http://www.w3.org/1999/xlink" width="1920" zoomAndPan="magnify" viewBox="0 0 1440 809.999993" height="1080" preserveAspectRatio="xMidYMid meet" version="1.0"><defs><clipPath id="c503b3e979"><path d="M 0 0 L 478.589844 0 L 478.589844 64.96875 L 0 64.96875 Z M 0 0 " clip-rule="nonzero"/></clipPath><clipPath id="2d6a42ef35"><path d="M 472.585938 -0.882812 C 476.027344 -11.003906 478.289062 -22.511719 478.289062 -33.804688 C 478.289062 -45.097656 476.351562 -55.96875 472.910156 -65.984375 C 472.800781 -66.195312 472.800781 -66.410156 472.695312 -66.621094 C 458.925781 -104.234375 422.566406 -131.9375 360.261719 -132.46875 L -656.675781 -132.46875 L -656.675781 64.96875 L 359.507812 64.96875 C 422.78125 64.433594 459.140625 37.15625 472.585938 -0.882812 " clip-rule="nonzero"/></clipPath><clipPath id="8ce8cfa8c7"><path d="M 0 81 L 433.1875 81 L 433.1875 810 L 0 810 Z M 0 81 " clip-rule="nonzero"/></clipPath><clipPath id="86cb9bcacd"><path d="M -350.390625 864.578125 L 171.996094 864.578125 L 433.1875 81 L -611.582031 81 L -350.390625 864.578125 " clip-rule="nonzero"/></clipPath></defs><g clip-path="url(#c503b3e979)"><g clip-path="url(#2d6a42ef35)"><path fill="#93b8e1" d="M -656.675781 64.96875 L -656.675781 -132.46875 L 478.589844 -132.46875 L 478.589844 64.96875 Z M -656.675781 64.96875 " fill-opacity="1" fill-rule="nonzero"/></g></g><g clip-path="url(#8ce8cfa8c7)"><g clip-path="url(#86cb9bcacd)"><path fill="#142434" d="M -611.582031 81 L 433.1875 81 L 433.1875 864.578125 L -611.582031 864.578125 Z M -611.582031 81 " fill-opacity="1" fill-rule="nonzero"/></g></g></svg>