<svg xmlns="http://www.w3.org/2000/svg" xmlns:xlink="http://www.w3.org/1999/xlink" width="1000" zoomAndPan="magnify" viewBox="0 0 750 374.999991" height="500" preserveAspectRatio="xMidYMid meet" version="1.0"><defs><g/><clipPath id="75b8c84c5c"><path d="M 145.253906 111.160156 L 338.003906 111.160156 L 338.003906 207.910156 L 145.253906 207.910156 Z M 145.253906 111.160156 " clip-rule="nonzero"/></clipPath></defs><g clip-path="url(#75b8c84c5c)"><path fill="#93b8e1" d="M 145.253906 62.851562 L 338.003906 62.851562 L 338.003906 255.601562 L 145.253906 255.601562 Z M 145.253906 62.851562 " fill-opacity="1" fill-rule="nonzero"/></g><g fill="#142434" fill-opacity="1"><g transform="translate(187.2463, 221.218629)"><g><path d="M 46.972656 -76.535156 C 43.066406 -76.984375 41.28125 -76.984375 37.152344 -76.984375 L 9.484375 -76.984375 L 9.484375 0 L 37.042969 0 C 41.167969 0 42.953125 0 46.859375 -0.445312 C 64.710938 -2.566406 79.101562 -15.730469 79.101562 -39.496094 C 79.101562 -63.261719 64.820312 -74.527344 46.972656 -76.535156 Z M 42.621094 -13.945312 C 40.054688 -13.722656 38.046875 -13.722656 34.808594 -13.722656 L 27 -13.722656 L 27 -63.371094 L 34.921875 -63.371094 C 38.15625 -63.371094 40.164062 -63.261719 42.730469 -63.035156 C 53.554688 -61.808594 60.695312 -53.777344 60.695312 -39.273438 C 60.695312 -24.433594 53.441406 -15.171875 42.621094 -13.945312 Z M 42.621094 -13.945312 "/></g></g></g><g fill="#142434" fill-opacity="1"><g transform="translate(264.112334, 221.218629)"><g><path d="M 79.773438 0 L 79.773438 -76.984375 L 62.367188 -76.984375 L 62.367188 -42.730469 C 62.367188 -37.042969 62.480469 -28.339844 62.925781 -20.304688 L 31.910156 -76.984375 L 9.484375 -76.984375 L 9.484375 0 L 27 0 L 27 -33.472656 C 27 -39.050781 26.886719 -46.972656 26.332031 -55.117188 L 56.453125 0 Z M 79.773438 0 "/></g></g></g><g fill="#142434" fill-opacity="1"><g transform="translate(344.994615, 221.218629)"><g><path d="M 14.503906 -18.742188 C 8.589844 -18.742188 4.351562 -14.617188 4.351562 -8.589844 C 4.351562 -2.675781 8.589844 1.5625 14.503906 1.5625 C 20.527344 1.5625 24.65625 -2.675781 24.65625 -8.589844 C 24.65625 -14.617188 20.527344 -18.742188 14.503906 -18.742188 Z M 14.503906 -18.742188 "/></g></g></g><g fill="#142434" fill-opacity="1"><g transform="translate(367.864383, 221.218629)"><g><path d="M 46.972656 -76.535156 C 43.066406 -76.984375 41.28125 -76.984375 37.152344 -76.984375 L 9.484375 -76.984375 L 9.484375 0 L 37.042969 0 C 41.167969 0 42.953125 0 46.859375 -0.445312 C 64.710938 -2.566406 79.101562 -15.730469 79.101562 -39.496094 C 79.101562 -63.261719 64.820312 -74.527344 46.972656 -76.535156 Z M 42.621094 -13.945312 C 40.054688 -13.722656 38.046875 -13.722656 34.808594 -13.722656 L 27 -13.722656 L 27 -63.371094 L 34.921875 -63.371094 C 38.15625 -63.371094 40.164062 -63.261719 42.730469 -63.035156 C 53.554688 -61.808594 60.695312 -53.777344 60.695312 -39.273438 C 60.695312 -24.433594 53.441406 -15.171875 42.621094 -13.945312 Z M 42.621094 -13.945312 "/></g></g></g><g fill="#142434" fill-opacity="1"><g transform="translate(444.730429, 221.218629)"><g><path d="M 66.605469 -13.722656 L 27 -13.722656 L 27 -31.796875 L 62.925781 -31.796875 L 62.925781 -45.410156 L 27 -45.410156 L 27 -63.371094 L 65.492188 -63.371094 L 65.492188 -76.984375 L 9.484375 -76.984375 L 9.484375 0 L 66.605469 0 Z M 66.605469 -13.722656 "/></g></g></g><g fill="#142434" fill-opacity="1"><g transform="translate(508.989893, 221.218629)"><g><path d="M 52.660156 0 L 80.441406 -76.984375 L 61.921875 -76.984375 L 42.0625 -13.5 L 22.539062 -76.984375 L 3.570312 -76.984375 L 31.015625 0 Z M 52.660156 0 "/></g></g></g><g fill="#142434" fill-opacity="1"><g transform="translate(194.764448, 257.661809)"><g><path d="M 9.117188 -20.445312 C 5.429688 -20.445312 2.4375 -18.265625 2.4375 -14.808594 C 2.4375 -11.5 4.90625 -10.078125 8.449219 -9.265625 C 11.964844 -8.449219 13.359375 -7.347656 13.359375 -4.90625 C 13.359375 -2.816406 11.5 -1.566406 9.207031 -1.566406 C 6.59375 -1.566406 4.761719 -3.050781 4.183594 -5.691406 L 1.511719 -5.691406 C 1.945312 -1.828125 4.734375 0.40625 9.148438 0.40625 C 13.011719 0.40625 16.03125 -1.859375 16.03125 -5.371094 C 16.03125 -8.769531 13.824219 -10.570312 9.410156 -11.585938 C 6.359375 -12.285156 5.109375 -13.214844 5.109375 -15.390625 C 5.109375 -17.480469 6.796875 -18.46875 8.914062 -18.46875 C 11.441406 -18.46875 12.921875 -17.015625 13.15625 -14.492188 L 15.828125 -14.492188 C 15.449219 -17.917969 13.269531 -20.445312 9.117188 -20.445312 Z M 9.117188 -20.445312 "/></g></g></g><g fill="#142434" fill-opacity="1"><g transform="translate(210.300072, 257.661809)"><g><path d="M 10.832031 -20.445312 C 4.734375 -20.445312 1.363281 -16.144531 1.363281 -10.019531 C 1.363281 -3.921875 4.734375 0.40625 10.832031 0.40625 C 16.929688 0.40625 20.300781 -3.921875 20.300781 -10.019531 C 20.300781 -16.144531 16.929688 -20.445312 10.832031 -20.445312 Z M 10.832031 -1.566406 C 6.621094 -1.566406 4.152344 -4.820312 4.152344 -10.019531 C 4.152344 -15.246094 6.621094 -18.46875 10.832031 -18.46875 C 15.042969 -18.46875 17.511719 -15.246094 17.511719 -10.019531 C 17.511719 -4.820312 15.042969 -1.566406 10.832031 -1.566406 Z M 10.832031 -1.566406 "/></g></g></g><g fill="#142434" fill-opacity="1"><g transform="translate(230.249625, 257.661809)"><g><path d="M 5.402344 -18.003906 L 15.941406 -18.003906 L 15.941406 -20.039062 L 2.902344 -20.039062 L 2.902344 0 L 5.402344 0 L 5.402344 -9.003906 L 14.78125 -9.003906 L 14.78125 -11.035156 L 5.402344 -11.035156 Z M 5.402344 -18.003906 "/></g></g></g><g fill="#142434" fill-opacity="1"><g transform="translate(245.262553, 257.661809)"><g><path d="M 17.773438 -18.003906 L 17.773438 -20.039062 L 0.988281 -20.039062 L 0.988281 -18.003906 L 8.132812 -18.003906 L 8.132812 0 L 10.628906 0 L 10.628906 -18.003906 Z M 17.773438 -18.003906 "/></g></g></g><g fill="#142434" fill-opacity="1"><g transform="translate(261.582233, 257.661809)"><g><path d="M 27.441406 -20.039062 L 24.800781 -20.039062 L 20.355469 -2.207031 L 15.828125 -19.746094 L 12.457031 -19.746094 L 7.8125 -2.234375 L 3.601562 -20.039062 L 0.753906 -20.039062 L 6.039062 0 L 9.351562 0 L 14.054688 -17.277344 L 18.585938 0 L 21.867188 0 Z M 27.441406 -20.039062 "/></g></g></g><g fill="#142434" fill-opacity="1"><g transform="translate(287.775177, 257.661809)"><g><path d="M 13.242188 -7.085938 L 15.625 0 L 18.324219 0 L 11.414062 -20.039062 L 8.042969 -20.039062 L 0.84375 0 L 3.515625 0 L 5.867188 -7.085938 Z M 6.5625 -9.117188 L 9.671875 -18.0625 L 12.574219 -9.117188 Z M 6.5625 -9.117188 "/></g></g></g><g fill="#142434" fill-opacity="1"><g transform="translate(304.87892, 257.661809)"><g><path d="M 16.089844 -5.257812 C 15.914062 -7.261719 15.128906 -9.089844 13.503906 -9.84375 C 15.363281 -10.425781 17.074219 -11.933594 17.074219 -14.578125 C 17.074219 -17.945312 14.984375 -19.542969 12.082031 -19.921875 C 11.179688 -20.039062 10.484375 -20.039062 9.46875 -20.039062 L 2.902344 -20.039062 L 2.902344 0 L 5.402344 0 L 5.402344 -8.625 L 9.175781 -8.625 C 9.640625 -8.625 10.136719 -8.625 10.597656 -8.597656 C 12.574219 -8.449219 13.359375 -7.085938 13.589844 -5.023438 C 13.851562 -2.554688 14.113281 -1.277344 14.664062 0 L 17.425781 0 C 16.609375 -1.074219 16.320312 -2.644531 16.089844 -5.257812 Z M 5.402344 -10.65625 L 5.402344 -18.003906 L 9.46875 -18.003906 C 10.367188 -18.003906 10.917969 -17.976562 11.472656 -17.886719 C 13.328125 -17.597656 14.402344 -16.582031 14.402344 -14.347656 C 14.402344 -12.082031 13.039062 -10.890625 11.179688 -10.714844 C 10.628906 -10.65625 10.136719 -10.65625 9.234375 -10.65625 Z M 5.402344 -10.65625 "/></g></g></g><g fill="#142434" fill-opacity="1"><g transform="translate(321.401876, 257.661809)"><g><path d="M 16.234375 -2.03125 L 5.402344 -2.03125 L 5.402344 -9.003906 L 15.070312 -9.003906 L 15.070312 -11.035156 L 5.402344 -11.035156 L 5.402344 -18.003906 L 15.941406 -18.003906 L 15.941406 -20.039062 L 2.902344 -20.039062 L 2.902344 0 L 16.234375 0 Z M 16.234375 -2.03125 "/></g></g></g><g fill="#142434" fill-opacity="1"><g transform="translate(336.995583, 257.661809)"><g/></g></g><g fill="#142434" fill-opacity="1"><g transform="translate(341.815812, 257.661809)"><g><path d="M 16.234375 -2.03125 L 5.402344 -2.03125 L 5.402344 -9.003906 L 15.070312 -9.003906 L 15.070312 -11.035156 L 5.402344 -11.035156 L 5.402344 -18.003906 L 15.941406 -18.003906 L 15.941406 -20.039062 L 2.902344 -20.039062 L 2.902344 0 L 16.234375 0 Z M 16.234375 -2.03125 "/></g></g></g><g fill="#142434" fill-opacity="1"><g transform="translate(357.409519, 257.661809)"><g><path d="M 18.585938 0 L 18.527344 -20.039062 L 16.089844 -20.039062 L 16.089844 -10.019531 C 16.089844 -7.667969 16.117188 -4.792969 16.175781 -2.4375 L 6.738281 -20.039062 L 2.902344 -20.039062 L 2.902344 0 L 5.402344 0 L 5.402344 -10.019531 C 5.402344 -12.371094 5.371094 -15.246094 5.3125 -17.597656 L 14.753906 0 Z M 18.585938 0 "/></g></g></g><g fill="#142434" fill-opacity="1"><g transform="translate(376.807345, 257.661809)"><g><path d="M 11.585938 -9.671875 L 11.585938 -7.636719 L 16.261719 -7.636719 C 16.261719 -4.066406 13.851562 -1.566406 10.597656 -1.566406 C 6.648438 -1.566406 4.152344 -5.109375 4.152344 -10.046875 C 4.152344 -14.898438 6.679688 -18.46875 10.773438 -18.46875 C 14.113281 -18.46875 15.886719 -16.523438 16.464844 -13.648438 L 16.523438 -13.359375 L 19.019531 -13.359375 L 18.992188 -13.648438 C 18.585938 -17.570312 15.914062 -20.445312 10.832031 -20.445312 C 5.140625 -20.445312 1.363281 -16.03125 1.363281 -9.933594 C 1.363281 -4.066406 4.617188 0.40625 10.453125 0.40625 C 12.75 0.40625 14.519531 -0.347656 15.652344 -1.625 L 16.554688 -3.484375 L 16.554688 0 L 18.761719 0 L 18.761719 -9.671875 Z M 11.585938 -9.671875 "/></g></g></g><g fill="#142434" fill-opacity="1"><g transform="translate(395.972856, 257.661809)"><g><path d="M 5.402344 0 L 5.402344 -20.039062 L 2.902344 -20.039062 L 2.902344 0 Z M 5.402344 0 "/></g></g></g><g fill="#142434" fill-opacity="1"><g transform="translate(402.186951, 257.661809)"><g><path d="M 18.585938 0 L 18.527344 -20.039062 L 16.089844 -20.039062 L 16.089844 -10.019531 C 16.089844 -7.667969 16.117188 -4.792969 16.175781 -2.4375 L 6.738281 -20.039062 L 2.902344 -20.039062 L 2.902344 0 L 5.402344 0 L 5.402344 -10.019531 C 5.402344 -12.371094 5.371094 -15.246094 5.3125 -17.597656 L 14.753906 0 Z M 18.585938 0 "/></g></g></g><g fill="#142434" fill-opacity="1"><g transform="translate(421.584778, 257.661809)"><g><path d="M 16.234375 -2.03125 L 5.402344 -2.03125 L 5.402344 -9.003906 L 15.070312 -9.003906 L 15.070312 -11.035156 L 5.402344 -11.035156 L 5.402344 -18.003906 L 15.941406 -18.003906 L 15.941406 -20.039062 L 2.902344 -20.039062 L 2.902344 0 L 16.234375 0 Z M 16.234375 -2.03125 "/></g></g></g><g fill="#142434" fill-opacity="1"><g transform="translate(437.178473, 257.661809)"><g><path d="M 16.234375 -2.03125 L 5.402344 -2.03125 L 5.402344 -9.003906 L 15.070312 -9.003906 L 15.070312 -11.035156 L 5.402344 -11.035156 L 5.402344 -18.003906 L 15.941406 -18.003906 L 15.941406 -20.039062 L 2.902344 -20.039062 L 2.902344 0 L 16.234375 0 Z M 16.234375 -2.03125 "/></g></g></g><g fill="#142434" fill-opacity="1"><g transform="translate(452.772168, 257.661809)"><g><path d="M 16.089844 -5.257812 C 15.914062 -7.261719 15.128906 -9.089844 13.503906 -9.84375 C 15.363281 -10.425781 17.074219 -11.933594 17.074219 -14.578125 C 17.074219 -17.945312 14.984375 -19.542969 12.082031 -19.921875 C 11.179688 -20.039062 10.484375 -20.039062 9.46875 -20.039062 L 2.902344 -20.039062 L 2.902344 0 L 5.402344 0 L 5.402344 -8.625 L 9.175781 -8.625 C 9.640625 -8.625 10.136719 -8.625 10.597656 -8.597656 C 12.574219 -8.449219 13.359375 -7.085938 13.589844 -5.023438 C 13.851562 -2.554688 14.113281 -1.277344 14.664062 0 L 17.425781 0 C 16.609375 -1.074219 16.320312 -2.644531 16.089844 -5.257812 Z M 5.402344 -10.65625 L 5.402344 -18.003906 L 9.46875 -18.003906 C 10.367188 -18.003906 10.917969 -17.976562 11.472656 -17.886719 C 13.328125 -17.597656 14.402344 -16.582031 14.402344 -14.347656 C 14.402344 -12.082031 13.039062 -10.890625 11.179688 -10.714844 C 10.628906 -10.65625 10.136719 -10.65625 9.234375 -10.65625 Z M 5.402344 -10.65625 "/></g></g></g></svg>